<?xml version="1.0" standalone="no"?><!DOCTYPE svg PUBLIC "-//W3C//DTD SVG 1.1//EN" "http://www.w3.org/Graphics/SVG/1.1/DTD/svg11.dtd"><svg t="1614592574104" class="icon" viewBox="0 0 1024 1024" version="1.1" xmlns="http://www.w3.org/2000/svg" p-id="2832" xmlns:xlink="http://www.w3.org/1999/xlink" width="200" height="200"><defs><style type="text/css">@font-face { font-weight: 400; font-style: normal; font-family: Circular-Loom; src: url("https://cdn.loom.com/assets/fonts/circular/CircularXXWeb-Book-cd7d2bcec649b1243839a15d5eb8f0a3.woff2") format("woff2"); }
@font-face { font-weight: 500; font-style: normal; font-family: Circular-Loom; src: url("https://cdn.loom.com/assets/fonts/circular/CircularXXWeb-Medium-d74eac43c78bd5852478998ce63dceb3.woff2") format("woff2"); }
@font-face { font-weight: 700; font-style: normal; font-family: Circular-Loom; src: url("https://cdn.loom.com/assets/fonts/circular/CircularXXWeb-Bold-83b8ceaf77f49c7cffa44107561909e4.woff2") format("woff2"); }
@font-face { font-weight: 900; font-style: normal; font-family: Circular-Loom; src: url("https://cdn.loom.com/assets/fonts/circular/CircularXXWeb-Black-bf067ecb8aa777ceb6df7d72226febca.woff2") format("woff2"); }
</style></defs><path d="M515.793128 520.850631m-478.367601 0a478.3676 478.3676 0 1 0 956.735201 0 478.3676 478.3676 0 1 0-956.735201 0Z" fill="#E9EAEB" p-id="2833"></path><path d="M994.160728 834.271361H614.70345l-32.946024 33.018274H449.828829l-32.946024-33.018274H37.425527v-593.895435H994.160728v593.895435z" fill="#A3D4FF" p-id="2834"></path><path d="M588.621181 883.762647H442.965074l-32.873774-33.018274H20.880265V223.975164h989.825725v626.841459H621.350455z m-132.000847-33.018274h118.345587l32.946024-33.018274h369.775771V256.921188H53.898539v560.877161h369.848021z" fill="#2A5082" p-id="2835"></path><path d="M549.100402 801.253087h-33.307274V289.867212c0-53.609539 32.223524-98.982572 98.982572-98.982572h296.947718v577.350173h-296.947718c-31.934523 0.07225-53.609539 9.031257-65.675298 33.018274z" fill="#FFFFFF" p-id="2836"></path><path d="M558.854159 817.798349h-59.534043V289.867212c0-69.071051 46.384534-115.600085 115.600084-115.600084h313.42073v610.368447h-313.56523c-34.246525 0-44.867283 11.560008-51.297537 24.059267z m-26.588019-33.018274h7.225005c20.085515-29.333521 52.164538-33.018274 75.356805-33.018274h280.474706V207.429902H614.7757c-60.834545 0-82.50956 42.627531-82.50956 82.50956z" fill="#2A5082" p-id="2837"></path><path d="M482.774854 801.253087h33.018274V289.867212c0-53.609539-32.223524-98.982572-98.982573-98.982572h-296.947717v577.350173h296.947717c32.006773 0.07225 53.609539 9.031257 65.964299 33.018274z" fill="#FFFFFF" p-id="2838"></path><path d="M532.26614 817.798349h-59.534044l-4.624003-8.959007c-6.430255-12.499259-17.123263-24.059268-51.297538-24.059267H103.389826V174.411628h313.420729c69.071051 0 115.600085 46.384534 115.600085 115.600084z m-40.17103-33.018274h7.225006v-494.912863c0-39.882029-21.675016-82.50956-82.509561-82.50956H136.4081v544.404149h280.402455c23.192267 0.07225 55.27129 3.684753 75.356805 33.018274z" fill="#2A5082" p-id="2839"></path><path d="M482.774854 801.253087h33.018274V289.867212c0-53.609539-22.686517-107.652579-75.212305-125.715092L202.300148 92.913568v577.422423l238.425175 71.238552c28.900021 11.271008 36.125026 31.862273 42.049531 59.678544z" fill="#FFFFFF" p-id="2840"></path><path d="M515.793128 817.798349h-33.018274a16.473012 16.473012 0 0 1-16.111762-12.932759c-5.996754-27.02152-11.776759-39.737529-31.573273-47.685035L197.603895 686.375503a16.473012 16.473012 0 0 1-11.776759-15.822762V92.913568a16.473012 16.473012 0 0 1 21.241516-15.822762l238.425174 71.238553c53.898539 18.496014 86.700064 72.611303 86.700064 141.537853v511.385875a16.473012 16.473012 0 0 1-16.400762 16.545262z m-20.013265-33.018274h3.540253v-494.912863c0-20.663515-4.624003-89.734566-64.085797-110.10908l-216.316659-65.025048v543.320398l226.431666 67.77055 1.300501 0.4335c31.356523 12.210259 42.483031 34.102025 49.130036 58.522543z" fill="#2A5082" p-id="2841"></path><path d="M829.213857 396.50829l-57.727792-50.791787-57.727792 50.791787V157.938616h115.455584v238.569674z" fill="#E9EAEB" p-id="2842"></path><path d="M845.759119 432.994567l-74.200804-65.025047-74.200804 65.025047V141.465604h148.473859z m-74.273054-109.24208l41.25478 36.125027V174.411628h-82.50956v185.610386z" fill="#2A5082" p-id="2843"></path></svg>