<?xml version="1.0" standalone="no"?><!DOCTYPE svg PUBLIC "-//W3C//DTD SVG 1.1//EN" "http://www.w3.org/Graphics/SVG/1.1/DTD/svg11.dtd"><svg t="1614592544744" class="icon" viewBox="0 0 1024 1024" version="1.1" xmlns="http://www.w3.org/2000/svg" p-id="5243" xmlns:xlink="http://www.w3.org/1999/xlink" width="200" height="200"><defs><style type="text/css">@font-face { font-weight: 400; font-style: normal; font-family: Circular-Loom; src: url("https://cdn.loom.com/assets/fonts/circular/CircularXXWeb-Book-cd7d2bcec649b1243839a15d5eb8f0a3.woff2") format("woff2"); }
@font-face { font-weight: 500; font-style: normal; font-family: Circular-Loom; src: url("https://cdn.loom.com/assets/fonts/circular/CircularXXWeb-Medium-d74eac43c78bd5852478998ce63dceb3.woff2") format("woff2"); }
@font-face { font-weight: 700; font-style: normal; font-family: Circular-Loom; src: url("https://cdn.loom.com/assets/fonts/circular/CircularXXWeb-Bold-83b8ceaf77f49c7cffa44107561909e4.woff2") format("woff2"); }
@font-face { font-weight: 900; font-style: normal; font-family: Circular-Loom; src: url("https://cdn.loom.com/assets/fonts/circular/CircularXXWeb-Black-bf067ecb8aa777ceb6df7d72226febca.woff2") format("woff2"); }
</style></defs><path d="M472.354857 30.192731H634.842089v308.655358H472.354857z" fill="#00CA79" p-id="5244"></path><path d="M546.95989 431.859832a29.023672 29.023672 0 0 1-29.023672-29.023672v-67.316309h58.047344v67.316309a29.035601 29.035601 0 0 1-29.023672 29.023672zM363.751688 631.23206h85.901957v85.901957h-85.901957zM621.45756 719.269338h85.901957v85.901957h-85.901957z" fill="#00CA79" p-id="5245"></path><path d="M396.592695 562.030941v-119.291705h-119.291706v85.890028H169.85495v119.291705h91.270084v85.890028h85.890028v88.037279h119.291706v-88.037279h85.890028v-85.890028h85.890027v-85.890028h52.488351v85.890028h119.291705v-119.291705h-85.890028v-85.890028h-119.291705v85.890028h-85.890028v85.890028H289.146656v-52.488351z m-85.890028-85.890028h52.48835v52.488351h-52.48835z m-54.874185 138.378379h-52.571854v-52.488351h52.48835z m468.291519-52.488351h52.488351v52.488351h-52.488351z m-85.890027-85.890028h52.48835v52.488351h-52.48835z m-85.890028 85.890028h52.48835v52.488351h-52.48835z m-85.890028 85.890028h52.48835v52.488351h-52.48835z m-85.890028 0h52.48835v52.488351h-52.48835z m0 88.037279h52.48835v52.48835h-52.48835z m-85.890028-88.037279h52.48835v52.488351h-52.48835z" fill="#191919" p-id="5246"></path><path d="M604.756721 786.860019h-85.890028v119.291705h119.291706v-84.267661h85.890027v-119.291705h-119.291705z m0 35.024044v50.877913h-52.48835v-52.488351h52.48835z m33.401678-35.024044v-50.877913h52.48835v52.488351h-52.48835z" fill="#191919" p-id="5247"></path><path d="M870.574428 349.858714a432.480149 432.480149 0 0 0-190.222553-156.641939l-13.050513 30.765331a398.947251 398.947251 0 1 1-322.910717 5.451631l-14.052563-30.300093a432.420503 432.420503 0 1 0 540.236346 150.72507z" fill="#191919" p-id="5248"></path><path d="M460.032024 402.895806a45.73644 45.73644 0 0 0 28.964026 42.491706v66.230755h33.401677v-66.230755a45.724511 45.724511 0 0 0 28.964027-42.491706v-50.48425h47.108294V0H412.923729v352.483131h47.108295z m57.928052 0a12.263187 12.263187 0 1 1-24.526375 0v-50.48425h24.526375z m-71.575023-83.873998V33.401678h118.683318v285.679776h-118.742964z" fill="#191919" p-id="5249"></path></svg>